<svg xmlns="http://www.w3.org/2000/svg" style="display: none;"width="24" height="24" viewBox="0 0 24 24">
    <symbol id="HomeSVG">
        <path d="M6 19h3v-5q0-.425.288-.712T10 13h4q.425 0 .713.288T15 14v5h3v-9l-6-4.5L6 10zm-2 0v-9q0-.475.213-.9t.587-.7l6-4.5q.525-.4 1.2-.4t1.2.4l6 4.5q.375.275.588.7T20 10v9q0 .825-.588 1.413T18 21h-4q-.425 0-.712-.288T13 20v-5h-2v5q0 .425-.288.713T10 21H6q-.825 0-1.412-.587T4 19m8-6.75" fill="currentColor"></path>
    </symbol>
    <symbol id="DownloadSVG" viewBox="0 0 24 24">
        <path d="M21 15v4a2 2 0 0 1-2 2H5a2 2 0 0 1-2-2v-4"></path>
        <polyline points="7 10 12 15 17 10"></polyline>
        <line x1="12" y1="15" x2="12" y2="3"></line>
    </symbol>
    <symbol id="CopySVG" viewBox="0 0 24 24">
    <rect x="9" y="9" width="13" height="13" rx="2" ry="2"></rect>
    <path d="M5 15H4a2 2 0 0 1-2-2V4a2 2 0 0 1 2-2h9a2 2 0 0 1 2 2v1"></path>
    </symbol>
</svg>
